HIERARCHY
ROOT Hips
{
	OFFSET 0.000000 0.000000 0.000000
	CHANNELS 6 Xposition Yposition Zposition Zrotation Yrotation Xrotation 
	JOINT LHipJoint
	{
		OFFSET 0.000000 0.000000 0.000000
		CHANNELS 3 Zrotation Yrotation Xrotation
		JOINT LeftUpLeg
		{
			OFFSET 1.363060 -1.794630 0.839290
			CHANNELS 3 Zrotation Yrotation Xrotation
			JOINT LeftLeg
			{
				OFFSET 2.448110 -6.726130 0.000000
				CHANNELS 3 Zrotation Yrotation Xrotation
				JOINT LeftFoot
				{
					OFFSET 2.562200 -7.039590 0.000000
					CHANNELS 3 Zrotation Yrotation Xrotation
					JOINT LeftToeBase
					{
						OFFSET 0.157640 -0.433110 2.322550
						CHANNELS 3 Zrotation Yrotation Xrotation
						End Site
						{
							OFFSET 0.000000 0.000000 0.000000
						}
					}
				}
			}
		}
	}
	JOINT RHipJoint
	{
		OFFSET 0.000000 0.000000 0.000000
		CHANNELS 3 Zrotation Yrotation Xrotation
		JOINT RightUpLeg
		{
			OFFSET -1.305520 -1.794630 0.839290
			CHANNELS 3 Zrotation Yrotation Xrotation
			JOINT RightLeg
			{
				OFFSET -2.542530 -6.985550 0.000000
				CHANNELS 3 Zrotation Yrotation Xrotation
				JOINT RightFoot
				{
					OFFSET -2.568260 -7.056230 0.000000
					CHANNELS 3 Zrotation Yrotation Xrotation
					JOINT RightToeBase
					{
						OFFSET -0.164730 -0.452590 2.363150
						CHANNELS 3 Zrotation Yrotation Xrotation
						End Site
						{
							OFFSET 0.000000 0.000000 0.000000
						}
					}
				}
			}
		}
	}
	JOINT LowerBack
	{
		OFFSET 0.000000 0.000000 0.000000
		CHANNELS 3 Zrotation Yrotation Xrotation
		JOINT Spine
		{
			OFFSET 0.028270 2.035590 -0.193380
			CHANNELS 3 Zrotation Yrotation Xrotation
			JOINT Spine1
			{
				OFFSET 0.056720 2.048850 -0.042750
				CHANNELS 3 Zrotation Yrotation Xrotation
				JOINT Neck
				{
					OFFSET 0.000000 0.000000 0.000000
					CHANNELS 3 Zrotation Yrotation Xrotation
					JOINT Neck1
					{
						OFFSET -0.054170 1.746240 0.172020
						CHANNELS 3 Zrotation Yrotation Xrotation
						JOINT Head
						{
							OFFSET 0.104070 1.761360 -0.123970
							CHANNELS 3 Zrotation Yrotation Xrotation
							End Site
							{
								OFFSET 0.000000 0.000000 0.000000
							}
						}
					}
				}
				JOINT LeftShoulder
				{
					OFFSET 0.000000 0.000000 0.000000
					CHANNELS 3 Zrotation Yrotation Xrotation
					JOINT LeftArm
					{
						OFFSET 3.362410 1.200890 -0.311210
						CHANNELS 3 Zrotation Yrotation Xrotation
						JOINT LeftForeArm
						{
							OFFSET 4.983000 -0.000000 -0.000000
							CHANNELS 3 Zrotation Yrotation Xrotation
							JOINT LeftHand
							{
								OFFSET 3.483560 -0.000000 -0.000000
								CHANNELS 3 Zrotation Yrotation Xrotation
								JOINT LeftFingerBase
								{
									OFFSET 0.000000 0.000000 0.000000
									CHANNELS 3 Zrotation Yrotation Xrotation
									JOINT LeftHandIndex1
									{
										OFFSET 0.715260 -0.000000 -0.000000
										CHANNELS 3 Zrotation Yrotation Xrotation
										End Site
										{
											OFFSET 0.000000 0.000000 0.000000
										}
									}
								}
								JOINT LThumb
								{
									OFFSET 0.000000 0.000000 0.000000
									CHANNELS 3 Zrotation Yrotation Xrotation
									End Site
									{
										OFFSET 0.000000 0.000000 0.000000
									}
								}
							}
						}
					}
				}
				JOINT RightShoulder
				{
					OFFSET 0.000000 0.000000 0.000000
					CHANNELS 3 Zrotation Yrotation Xrotation
					JOINT RightArm
					{
						OFFSET -3.136600 1.374050 -0.404650
						CHANNELS 3 Zrotation Yrotation Xrotation
						JOINT RightForeArm
						{
							OFFSET -5.241900 -0.000000 -0.000000
							CHANNELS 3 Zrotation Yrotation Xrotation
							JOINT RightHand
							{
								OFFSET -3.444170 -0.000000 -0.000000
								CHANNELS 3 Zrotation Yrotation Xrotation
								JOINT RightFingerBase
								{
									OFFSET 0.000000 0.000000 0.000000
									CHANNELS 3 Zrotation Yrotation Xrotation
									JOINT RightHandIndex1
									{
										OFFSET -0.622530 -0.000000 -0.000000
										CHANNELS 3 Zrotation Yrotation Xrotation
										End Site
										{
											OFFSET 0.000000 0.000000 0.000000
										}
									}
								}
								JOINT RThumb
								{
									OFFSET 0.000000 0.000000 0.000000
									CHANNELS 3 Zrotation Yrotation Xrotation
									End Site
									{
										OFFSET 0.000000 0.000000 0.000000
									}
								}
							}
						}
					}
				}
			}
		}
	}
}
MOTION
Frames: 7
Frame Time: 0.008333
0.319167 16.705303 -3.133949 -173.351177 50.203332 -155.633121 -14.162460 1.430199 -0.508901 -5.125544 -3.467945 -16.071641 0.060729 2.921293 50.268320 2.361692 14.645511 -9.877388 -0.576600 0.000000 -32.653500 6.131590 -0.240583 0.542394 7.072823 3.475659 -38.982281 2.859972 -1.166125 21.770195 0.294947 1.495016 4.264378 -0.231301 0.000000 -57.161900 11.543230 -2.531468 1.659626 1.207176 -3.276296 -2.181736 -7.996915 -3.193818 1.642213 9.052493 -7.103142 -4.630884 -5.019365 -0.394396 0.670325 0.000000 0.000000 0.000000 4.250567 6.299840 0.355369 -42.577296 -19.523617 4.286532 -179.953340 -88.801118 -179.970099 -4.100919 1.440460 -0.037502 0.026251 0.385343 -0.000000 0.000000 0.000000 0.000000 0.000000 0.000000 0.000000 20.395376 -7.256378 1.168279 70.158556 -7.747780 -15.209443 4.415851 13.210718 0.009723 8.118446 4.834870 0.343143 0.059766 -0.029874 -0.000000 0.000000 0.000000 0.000000 0.000000 0.000000 0.000000 
0.441884 16.732969 -3.180709 -173.664259 49.011548 -155.925484 -14.232329 1.364032 -0.687237 -5.205119 -2.356770 -17.442452 0.205448 3.037357 52.275326 2.754460 17.203567 -9.823426 -0.603300 0.000000 -25.759100 6.138604 -0.279798 0.582049 7.023979 3.548040 -38.331277 2.758999 -1.118990 22.092770 0.032323 0.125621 3.123227 -0.533200 -0.000000 -56.849499 11.496464 -2.517283 1.781809 1.194809 -3.250694 -2.193728 -8.008489 -3.175452 1.538538 9.324984 -6.569949 -4.476821 -5.055488 -0.396501 0.708936 0.000000 0.000000 0.000000 4.209629 6.097159 0.422533 -43.924939 -18.861452 5.159264 179.993965 -89.789653 -179.972036 -4.011170 1.397665 -0.035295 0.016780 0.376755 -0.000000 0.000000 0.000000 0.000000 0.000000 0.000000 0.000000 20.770021 -6.749770 1.195985 69.811772 -6.694585 -15.332877 4.362404 12.680650 0.009923 7.700777 4.956112 0.333645 0.059116 -0.032445 -0.000000 0.000000 0.000000 0.000000 0.000000 0.000000 0.000000 
0.562826 16.764093 -3.225845 -174.093670 47.792918 -156.307029 -14.260748 1.298046 -0.845586 -5.424183 -1.399800 -18.754285 0.325878 3.138909 54.066135 3.132694 19.617095 -9.829806 -0.632000 0.000000 -20.058800 6.175462 -0.302425 0.618326 6.860964 3.572525 -37.581231 2.643147 -1.057413 22.210545 -0.242708 -1.275503 2.197491 -0.803701 -0.000000 -56.681400 11.360331 -2.517433 1.897330 1.167460 -3.234691 -2.206228 -8.010370 -3.167456 1.435465 9.581153 -6.030179 -4.320691 -5.079450 -0.397745 0.748457 0.000000 0.000000 0.000000 4.133236 5.877874 0.501204 -45.214020 -18.191901 6.060820 -0.071901 -89.079143 0.026753 -3.929576 1.350740 -0.033091 0.007654 0.367236 0.000000 0.000000 0.000000 0.000000 0.000000 0.000000 0.000000 21.089746 -6.237203 1.226076 69.479261 -5.605568 -15.472827 4.307509 12.170084 0.010123 7.294481 5.075472 0.323646 0.058440 -0.035299 -0.000000 0.000000 0.000000 0.000000 0.000000 0.000000 0.000000 
0.681740 16.798031 -3.270510 -174.616406 46.546536 -156.754495 -14.253988 1.239140 -0.975745 -5.767880 -0.619461 -20.001173 0.425026 3.226246 55.639424 3.470640 21.749790 -9.823184 -0.644700 0.000000 -16.104001 6.240845 -0.312166 0.642311 6.606550 3.508415 -36.750192 2.519258 -0.986825 22.139958 -0.514867 -2.646685 1.510339 -1.046700 -0.000000 -56.623800 11.153388 -2.528524 2.002317 1.129448 -3.226152 -2.219305 -7.998948 -3.167653 1.335661 9.805260 -5.491874 -4.164004 -5.089593 -0.398054 0.788473 0.000000 0.000000 0.000000 4.012829 5.649995 0.590255 -46.448910 -17.528719 6.987727 -0.151834 -87.791670 0.025569 -3.857062 1.305895 -0.031195 -0.001150 0.356696 0.000000 0.000000 0.000000 0.000000 0.000000 0.000000 0.000000 21.331494 -5.724183 1.256443 69.163297 -4.498737 -15.604715 4.253771 11.710052 0.010322 6.914821 5.188709 0.313649 0.057800 -0.038376 -0.000000 0.000000 0.000000 0.000000 0.000000 0.000000 0.000000 
0.798378 16.834087 -3.315869 -175.206020 45.273141 -157.241248 -14.219414 1.191943 -1.072927 -6.216280 -0.017816 -21.189921 0.503354 3.300521 57.012389 3.747933 23.486315 -9.810627 -0.645900 -0.000000 -13.584100 6.331078 -0.313621 0.648527 6.286481 3.325645 -35.859349 2.395586 -0.911651 21.903391 -0.768815 -3.925654 1.055680 -1.266300 -0.000000 -56.645699 10.897852 -2.546092 2.091681 1.085854 -3.222099 -2.233736 -7.969882 -3.173104 1.240473 9.981354 -4.975574 -4.008897 -5.084383 -0.397388 0.828537 0.000000 0.000000 0.000000 3.845903 5.401113 0.685595 -47.641757 -16.853292 7.922459 -0.246203 -86.352698 0.024408 -3.795828 1.271870 -0.029706 -0.009431 0.344977 -0.000000 0.000000 0.000000 0.000000 0.000000 0.000000 0.000000 21.471288 -5.230217 1.286741 68.863338 -3.375834 -15.699959 4.204251 11.315812 0.010534 6.576096 5.291345 0.304252 0.057295 -0.041652 -0.000000 0.000000 0.000000 0.000000 0.000000 0.000000 0.000000 
0.912438 16.871639 -3.362795 -175.834947 43.977807 -157.744666 -14.164548 1.158083 -1.137092 -6.745724 0.419581 -22.325267 0.562105 3.363003 58.199748 3.951806 24.751644 -9.796550 -0.639900 0.000000 -12.117100 6.440739 -0.311248 0.632470 5.926876 3.007848 -34.923057 2.280362 -0.835474 21.526675 -0.991199 -5.055806 0.804275 -1.463501 0.000000 -56.722100 10.615018 -2.564680 2.165841 1.040853 -3.218225 -2.248587 -7.921619 -3.179242 1.153114 10.101570 -4.483445 -3.857738 -5.063369 -0.395727 0.867912 0.000000 0.000000 0.000000 3.629213 5.154086 0.785538 -48.802348 -16.200832 8.865750 -0.356474 -84.740564 0.023252 -3.744246 1.253733 -0.029025 -0.017360 0.332143 -0.000000 0.000000 0.000000 0.000000 0.000000 0.000000 0.000000 21.498941 -4.753742 1.313444 68.576063 -2.262418 -15.725027 4.161594 11.029755 0.010763 6.292851 5.379391 0.295957 0.056969 -0.045016 -0.000000 0.000000 0.000000 0.000000 0.000000 0.000000 0.000000 
1.023641 16.910059 -3.412043 -176.471772 42.666937 -158.239040 -14.097466 1.136410 -1.169179 -7.326837 0.714614 -23.416988 0.603569 3.414759 59.213440 4.076472 25.511372 -9.767079 -0.623100 -0.000001 -11.434500 6.562205 -0.309638 0.593308 5.554149 2.555968 -33.955988 2.181124 -0.760472 21.036254 -1.172465 -5.994537 0.712803 -1.635800 -0.000000 -56.835900 10.326950 -2.578409 2.223594 0.998639 -3.209920 -2.263728 -7.853195 -3.181257 1.075238 10.160207 -4.029164 -3.713613 -5.026753 -0.393111 0.905790 0.000000 0.000000 0.000000 3.365220 4.910577 0.886038 -49.942783 -15.572225 9.803643 -0.482481 -82.955500 0.022084 -3.701363 1.256123 -0.029053 -0.024884 0.318238 -0.000000 0.000000 0.000000 0.000000 0.000000 0.000000 0.000000 21.407978 -4.306445 1.335304 68.293968 -1.165902 -15.647356 4.128398 10.873830 0.011023 6.076250 5.449318 0.289562 0.056888 -0.048396 -0.000000 0.000000 0.000000 0.000000 0.000000 0.000000 0.000000 
